<svg xmlns="http://www.w3.org/2000/svg" viewBox="0 0 1693 247" role="img" aria-label="Séance 404"><path fill="currentColor" fill-rule="evenodd" d="M78.9,241.5C55.5,237.1 37.6,228.0 24.5,213.8C14.7,203.2 8.7,191.4 5.5,176.1C4.0,168.8 4.3,167.0 7.4,166.9C8.5,166.9 19.2,165.9 31.2,164.7L52.8,162.4L53.4,166.5C54.5,173.6 58.0,182.4 61.6,187.3C66.0,193.3 75.3,199.4 84.5,202.3L91.5,204.5L105.0,204.5L118.5,204.5L125.0,202.2C133.2,199.3 138.6,195.6 142.5,190.2L145.5,185.9L145.8,178.5L146.2,171.1L144.0,166.5C139.7,157.6 133.6,154.9 93.0,144.5C60.0,136.0 54.8,134.4 42.4,128.4L33.2,124.1L27.3,118.2C16.4,107.2 11.7,94.9 11.7,77.0C11.6,55.4 19.6,39.5 36.5,27.5C63.0,8.5 110.4,4.2 142.5,17.8C160.5,25.4 174.1,38.1 182.8,55.5C187.8,65.5 191.6,80.0 189.2,80.0C188.8,80.0 179.5,80.7 168.5,81.5C157.5,82.3 147.1,83.0 145.4,83.0L142.3,83.0L141.6,79.2C141.3,77.1 139.7,72.7 138.0,69.3C131.1,55.5 117.1,48.0 98.0,48.0C75.3,48.0 61.0,58.1 61.0,74.0C61.0,81.4 62.7,85.1 68.1,89.0C73.5,92.8 79.6,94.8 111.0,102.4C156.3,113.4 168.3,118.2 179.6,129.4C191.7,141.5 196.2,153.5 196.4,174.0C196.5,187.2 195.2,193.5 190.4,203.5C181.9,221.3 163.4,234.0 137.1,240.2L128.5,242.2L107.5,242.6L86.5,242.9L78.9,241.5ZM272.0,240.1C238.1,232.7 216.1,208.2 210.9,172.1C209.2,160.3 210.2,137.8 212.9,127.5C217.2,111.1 227.4,94.4 238.8,85.5C252.0,75.0 268.5,69.3 288.5,68.3L300.5,67.8L309.9,69.4C343.8,75.3 365.3,95.0 373.5,127.5C375.5,135.5 376.9,152.4 376.2,160.2L375.8,166.0L316.3,166.0L256.8,166.0L257.5,171.2C259.7,187.5 267.0,199.4 278.0,205.0C286.4,209.3 302.6,209.3 310.9,205.0C316.4,202.2 322.6,195.6 325.7,189.0C327.2,186.0 328.4,183.4 328.5,183.3C328.5,183.2 338.7,184.0 351.0,185.1C364.9,186.3 373.7,187.5 374.1,188.2C375.6,190.5 368.7,204.7 362.4,212.6C351.3,226.4 338.2,235.0 321.8,239.1L313.5,241.2L297.0,241.6L280.5,242.0L272.0,240.1ZM426.1,240.0C399.9,232.9 385.0,211.5 388.0,184.8C391.1,157.6 410.0,144.1 453.8,138.0C481.8,134.0 492.0,130.6 494.6,124.5C497.5,117.4 493.7,109.5 485.2,105.3L479.5,102.5L469.5,102.5L459.5,102.5L453.8,105.3C447.1,108.6 440.8,115.2 438.4,121.6L436.7,126.0L434.1,126.0C428.4,125.9 395.9,120.3 394.7,119.1L393.5,117.9L395.9,111.2C402.7,91.5 420.4,76.8 444.0,71.0C460.3,67.0 484.5,67.3 501.4,71.6C520.0,76.4 534.7,89.6 540.1,106.5L541.4,110.5L542.0,169.0L542.6,227.5L544.2,231.9C545.1,234.3 545.6,236.9 545.3,237.6L544.8,239.0L522.9,239.0L501.1,239.0L499.6,236.2C498.8,234.6 497.6,230.4 496.9,226.9L495.7,220.4L490.5,225.5C484.8,231.1 474.0,236.9 464.5,239.6C460.9,240.6 453.4,241.4 446.0,241.6L433.5,242.0L426.1,240.0ZM800.0,240.1C782.7,236.3 770.3,229.4 759.1,217.4L752.2,210.0L747.6,200.7C741.4,188.1 738.9,177.7 738.3,160.6C737.7,144.8 738.9,133.6 742.7,122.0C751.3,95.5 769.6,78.2 796.5,70.9L804.5,68.7L822.0,68.7L839.5,68.7L847.5,70.8C864.7,75.5 878.8,85.5 889.6,100.6C894.8,107.8 900.2,119.3 899.4,121.3C899.1,122.2 891.4,124.4 878.2,127.3C866.8,129.9 857.0,132.0 856.5,132.0C855.9,132.0 854.1,129.0 852.5,125.2C850.5,120.7 847.8,116.7 844.0,112.9L838.5,107.3L833.1,105.5L827.8,103.8L819.1,104.2L810.5,104.6L806.2,106.9C793.3,113.5 786.4,128.1 785.3,151.0L784.8,162.5L786.3,171.3C789.1,187.3 796.8,199.4 807.3,204.1L812.5,206.5L821.5,206.5L830.5,206.5L836.1,203.9C844.1,200.1 852.7,188.6 854.6,179.1C855.0,177.4 855.6,175.8 856.0,175.5C857.2,174.8 900.4,180.0 901.4,181.0C903.9,183.5 895.2,202.8 886.6,213.7C876.5,226.6 863.8,235.0 848.1,239.2L840.5,241.2L824.5,241.6L808.5,242.0L800.0,240.1ZM973.0,240.1C940.0,232.9 918.5,209.7 912.4,174.8L910.8,165.5L911.3,150.5L911.8,135.5L913.9,127.5C916.5,117.5 923.5,103.3 929.5,95.8C938.4,84.5 953.4,75.1 969.5,70.9L977.5,68.7L993.5,68.6L1009.5,68.5L1018.5,70.8C1053.1,79.5 1073.8,105.5 1076.9,144.0C1077.4,149.8 1077.5,157.1 1077.2,160.2L1076.8,166.0L1017.3,166.0L957.8,166.0L958.5,171.2C961.3,191.9 972.3,205.4 988.4,208.0C995.3,209.1 1006.8,207.6 1012.0,205.0C1017.7,202.1 1023.4,195.9 1026.7,189.2C1028.1,186.0 1029.4,183.4 1029.5,183.3C1029.5,183.2 1039.7,184.0 1052.0,185.1C1065.9,186.3 1074.7,187.5 1075.1,188.2C1075.9,189.5 1073.2,196.9 1069.2,204.5C1067.7,207.2 1062.0,214.0 1056.5,219.5L1046.5,229.5L1038.8,233.3C1034.5,235.3 1027.3,238.0 1022.8,239.1L1014.5,241.2L998.0,241.6L981.5,242.0L973.0,240.1ZM561.2,237.8C560.5,237.1 560.0,234.5 560.0,232.0C560.0,226.3 561.2,225.0 566.6,225.0L570.9,225.0L571.2,219.8L571.5,214.5L576.2,214.2L581.0,213.9L581.0,157.9L581.0,102.0L571.7,102.0C565.8,102.0 562.0,101.6 561.2,100.8C560.5,100.1 560.0,97.5 560.0,95.0C560.0,89.3 561.2,88.0 566.6,88.0L570.9,88.0L571.2,83.2L571.5,78.5L581.7,78.2L591.9,77.9L592.2,72.7L592.5,67.5L602.9,67.2C609.6,67.0 613.7,67.3 614.6,68.1C615.4,68.8 616.0,71.1 616.0,73.6L616.0,78.0L619.4,78.0C621.3,78.0 623.5,78.3 624.4,78.6L626.0,79.2L626.0,83.6L626.0,88.0L629.5,88.0L633.0,88.0L633.0,84.2C633.0,79.3 634.4,78.0 639.7,78.0L644.0,78.0L644.0,73.1L644.0,68.2L645.6,67.6C646.5,67.3 656.0,67.0 666.9,67.0L686.6,67.0L687.8,68.2C688.5,68.9 689.0,71.3 689.0,73.7L689.0,78.0L692.4,78.0C694.3,78.0 696.5,78.3 697.4,78.6L699.0,79.2L699.0,83.6L699.0,88.0L703.3,88.0C705.7,88.0 708.1,88.5 708.8,89.2L710.0,90.4L710.0,152.2L710.0,214.0L713.4,214.0C715.3,214.0 717.5,214.3 718.4,214.6L720.0,215.2L720.0,220.1L720.0,224.9L724.8,225.2L729.5,225.5L729.5,232.0L729.5,238.5L686.7,238.8L643.9,239.0L644.2,232.3L644.5,225.5L649.2,225.2L654.0,224.9L654.0,220.6C654.0,215.3 655.3,214.0 660.7,214.0L665.0,214.0L665.0,158.0L665.0,102.0L660.7,102.0C655.4,102.0 654.0,100.7 654.0,95.8L654.0,92.0L650.5,92.0L647.0,92.0L647.0,96.4L647.0,100.8L645.4,101.4C644.5,101.7 642.3,102.0 640.4,102.0L637.0,102.0L637.0,105.4C637.0,107.3 636.7,109.5 636.4,110.4L635.8,112.0L630.9,112.0L626.0,112.0L626.0,163.0L626.0,214.0L630.3,214.0C632.7,214.0 635.1,214.5 635.8,215.2C636.6,216.0 637.0,220.0 637.0,226.5C637.0,233.0 636.6,237.0 635.8,237.8L634.6,239.0L598.5,239.0L562.4,239.0L561.2,237.8ZM1397.7,238.4C1397.3,238.0 1397.0,235.7 1397.0,233.3L1397.0,229.0L1388.6,229.0C1377.5,229.0 1377.0,228.8 1377.0,223.4L1377.0,219.1L1372.2,218.8L1367.5,218.5L1367.2,214.2L1366.9,210.0L1363.1,210.0C1357.7,210.0 1357.0,208.8 1357.0,198.8L1357.0,190.0L1352.6,190.0L1348.2,190.0L1347.6,188.4C1347.3,187.5 1347.0,160.6 1347.0,128.6L1347.0,70.4L1348.2,69.2C1348.9,68.5 1351.1,68.0 1353.2,68.0L1357.0,68.0L1357.0,59.2C1357.0,49.2 1357.7,48.0 1363.2,48.0L1367.0,48.0L1367.0,39.1L1367.0,30.2L1368.6,29.6C1369.5,29.3 1373.9,29.0 1378.5,29.0L1386.9,29.0L1387.2,24.2L1387.5,19.5L1423.0,19.5L1458.5,19.5L1458.8,24.2L1459.1,29.0L1462.5,29.0C1468.0,29.0 1469.0,29.8 1469.0,34.1L1469.0,38.0L1472.4,38.0C1474.3,38.0 1476.5,38.3 1477.4,38.6L1479.0,39.2L1479.0,43.6L1479.0,48.0L1482.8,48.0C1488.3,48.0 1489.0,49.2 1489.0,59.1L1489.0,67.9L1493.8,68.2L1498.5,68.5L1498.8,127.9L1499.0,187.3L1497.9,188.6C1497.3,189.4 1495.0,190.0 1492.9,190.0L1489.0,190.0L1489.0,193.8C1489.0,198.6 1487.6,200.0 1482.8,200.0L1479.0,200.0L1479.0,209.5L1479.0,219.0L1474.0,219.0L1469.0,219.0L1469.0,223.4L1469.0,227.8L1467.4,228.4C1466.5,228.7 1462.1,229.0 1457.5,229.0L1449.1,229.0L1448.8,233.8L1448.5,238.5L1423.4,238.8C1409.6,238.9 1398.1,238.7 1397.7,238.4ZM1250.7,237.4C1250.3,237.0 1250.0,225.5 1250.0,211.8L1250.0,187.0L1201.2,187.0L1152.4,187.0L1151.2,185.8L1150.0,184.6L1150.0,166.7L1150.0,148.7L1184.2,93.6C1203.0,63.3 1221.1,34.1 1224.4,28.7L1230.5,19.0L1263.0,19.2L1295.5,19.5L1296.0,85.0L1296.5,150.5L1309.3,150.8L1322.0,151.1L1321.8,168.8L1321.5,186.5L1308.8,186.8L1296.0,187.1L1295.8,212.3L1295.5,237.5L1273.4,237.8C1261.3,237.9 1251.1,237.7 1250.7,237.4ZM1617.7,237.4C1617.3,237.0 1617.0,225.5 1617.0,211.8L1617.0,187.0L1568.2,187.0L1519.4,187.0L1518.2,185.8L1517.0,184.6L1517.0,166.7L1517.0,148.8L1543.1,106.6C1557.5,83.5 1575.6,54.3 1583.4,41.7L1597.5,19.0L1630.0,19.2L1662.5,19.5L1663.0,85.0L1663.5,150.5L1676.3,150.8L1689.0,151.1L1688.8,168.8L1688.5,186.5L1675.8,186.8L1663.0,187.1L1662.8,212.3L1662.5,237.5L1640.4,237.8C1628.3,237.9 1618.1,237.7 1617.7,237.4ZM1436.2,220.8L1436.5,216.5L1441.2,216.2L1446.0,215.9L1446.0,207.1C1446.0,197.2 1446.7,196.0 1452.2,196.0L1456.0,196.0L1456.0,124.0L1456.0,52.0L1452.2,52.0C1447.4,52.0 1446.0,50.6 1446.0,45.8L1446.0,42.0L1442.2,42.0C1437.5,42.0 1436.0,40.6 1436.0,36.3L1436.0,33.0L1423.0,33.0L1410.0,33.0L1410.0,36.3C1410.0,40.6 1408.5,42.0 1403.8,42.0L1400.0,42.0L1400.0,45.8C1400.0,50.6 1398.6,52.0 1393.8,52.0L1390.0,52.0L1390.0,124.0L1390.0,196.0L1393.8,196.0C1399.3,196.0 1400.0,197.2 1400.0,207.1L1400.0,215.9L1404.8,216.2L1409.5,216.5L1409.8,220.8L1410.1,225.0L1423.0,225.0L1435.9,225.0L1436.2,220.8ZM475.2,205.2C483.3,201.2 491.1,193.2 493.4,186.3C495.4,180.6 496.8,160.0 495.3,160.0C494.7,160.0 492.3,160.7 489.9,161.5C487.5,162.4 478.8,164.2 470.7,165.6C453.3,168.5 446.9,170.7 441.2,175.5C436.6,179.5 434.8,183.9 434.8,191.0C434.9,199.2 438.7,204.8 446.1,208.0C447.4,208.5 453.0,208.9 458.6,208.7L468.6,208.5L475.2,205.2ZM1249.8,103.8C1249.9,78.0 1249.7,57.0 1249.3,57.1C1248.5,57.1 1191.0,149.1 1191.0,150.3C1191.0,150.7 1204.2,150.9 1220.2,150.8L1249.5,150.5L1249.8,103.8ZM1616.8,103.5L1617.0,56.6L1615.6,58.0C1614.1,59.6 1559.1,147.5 1558.3,149.7L1557.8,151.0L1587.1,150.8L1616.5,150.5L1616.8,103.5ZM328.3,131.8C325.6,117.9 317.5,107.6 306.0,103.4C300.7,101.5 288.3,101.2 282.5,102.8C276.4,104.5 269.5,109.4 265.6,114.7C262.4,119.0 258.0,130.0 258.0,133.6L258.0,135.0L293.5,135.0L328.9,135.0L328.3,131.8ZM1029.3,131.8C1026.6,117.9 1018.5,107.6 1007.0,103.4C1001.7,101.5 989.3,101.2 983.5,102.8C977.4,104.5 970.5,109.4 966.6,114.7C963.4,119.0 959.0,130.0 959.0,133.6L959.0,135.0L994.5,135.0L1030.0,135.0L1029.3,131.8ZM276.4,55.5C276.1,54.7 281.6,42.8 288.7,29.1L301.5,4.0L325.4,4.0L349.2,4.0L348.7,5.9C348.5,7.0 339.5,18.9 328.9,32.4L309.5,57.0L293.2,57.0L276.9,57.0L276.4,55.5Z"/></svg>
